<svg width="85" height="60" viewBox="0 0 85 60" fill="none" xmlns="http://www.w3.org/2000/svg">
<path fill-rule="evenodd" clip-rule="evenodd" d="M5.68548 45.6653C7.07661 45.6653 8.34677 46.0282 9.25403 46.8145C10.0403 47.5403 10.5242 48.5685 10.5242 49.9596C10.5242 51.2903 9.97984 52.3185 9.19355 53.0443C8.28629 53.8911 6.95565 54.254 5.68548 54.254H1.20968V59.9395H0V45.6653H5.68548ZM81.1694 50.383C81.8952 50.383 82.5605 50.504 83.1653 50.7459C83.7702 50.9879 84.254 51.2903 84.6774 51.7137L84.7984 51.8346L83.8911 52.6209L83.7702 52.5C83.5282 52.258 83.1653 52.0161 82.6814 51.8346C82.1976 51.6532 81.7137 51.5927 81.1694 51.5927C80.8064 51.5927 80.4436 51.6532 80.1411 51.7137C79.8387 51.7742 79.5363 51.8951 79.3548 52.0161C79.1734 52.1371 78.9919 52.258 78.9315 52.379C78.871 52.5 78.8105 52.6209 78.8105 52.8024C78.8105 52.9838 78.8105 53.1048 78.871 53.1653C78.9314 53.2863 79.0524 53.4072 79.2339 53.5282C79.4153 53.6492 79.6573 53.7701 79.8992 53.9516C80.2016 54.0725 80.504 54.254 80.8669 54.375L82.2581 54.8588C82.621 54.9798 82.9839 55.1613 83.2863 55.2822C83.5887 55.4637 83.8911 55.6451 84.1331 55.8266C84.375 56.0685 84.6169 56.3104 84.7379 56.6129C84.8589 56.9153 84.9798 57.2177 84.9798 57.5806C84.9798 57.9435 84.8589 58.3064 84.6774 58.6088C84.496 58.9113 84.1936 59.2137 83.8307 59.3951C83.4678 59.5766 83.1048 59.758 82.6814 59.879C82.2581 60 81.7742 60.0605 81.2903 60.0605C80.4436 60.0605 79.7177 59.9395 79.1129 59.6975C78.2057 59.3951 77.6008 58.9717 77.3589 58.7298L77.2379 58.6088L78.0847 57.7621L78.2057 57.883C78.3266 58.004 78.8105 58.3669 79.5363 58.6088C80.0202 58.7903 80.5645 58.8508 81.2903 58.8508C81.7137 58.8508 82.0161 58.7903 82.379 58.7298C82.7419 58.6693 83.0444 58.5484 83.2258 58.3669C83.4073 58.2459 83.5887 58.125 83.6492 57.9435C83.7702 57.8225 83.7702 57.7016 83.7702 57.5201C83.7702 57.3387 83.7702 57.2177 83.6492 57.0967C83.5887 56.9758 83.4677 56.8548 83.3468 56.7338C83.1653 56.6129 82.9839 56.4919 82.7419 56.3709C82.5 56.25 82.1976 56.129 81.8347 56.008L80.4436 55.5242C80.0202 55.4032 79.6573 55.2217 79.3548 55.1008C78.9919 54.9193 78.75 54.7379 78.4476 54.5564C78.1452 54.3145 77.9637 54.0725 77.7823 53.7701C77.6613 53.4677 77.5403 53.1653 77.5403 52.8629C77.5403 52.5 77.6613 52.1371 77.8427 51.8346C78.0242 51.5322 78.3266 51.2298 78.6895 51.0484C78.9919 50.8669 79.4153 50.6854 79.7782 50.625C80.2621 50.4435 80.6855 50.383 81.1694 50.383ZM71.371 50.383C72.0363 50.383 72.6411 50.504 73.1855 50.6854C73.7298 50.9274 74.2137 51.2298 74.6371 51.6532C75.0605 52.0766 75.4234 52.6209 75.6653 53.2258C75.9073 53.8306 76.0282 54.4959 76.0282 55.2217C76.0282 55.9475 75.9073 56.6129 75.6653 57.1572C75.4234 57.7621 75.0605 58.3064 74.6371 58.7298C74.2137 59.1532 73.7298 59.4556 73.1855 59.6975C72.6411 59.9395 72.0363 60 71.371 60C70.7661 60 70.1613 59.879 69.5565 59.6975C69.0121 59.4556 68.5282 59.1532 68.1048 58.7298C67.6814 58.3064 67.3186 57.7621 67.0766 57.1572C66.8347 56.5524 66.7137 55.8871 66.7137 55.2217C66.7137 54.4959 66.8347 53.8306 67.0766 53.2258C67.3186 52.6209 67.6814 52.0766 68.1048 51.6532C68.5282 51.2298 69.0121 50.9274 69.5565 50.6854C70.1008 50.504 70.7057 50.383 71.371 50.383ZM71.371 51.5927C70.8871 51.5927 70.4032 51.6532 70.0403 51.8346C69.6169 52.0161 69.254 52.1975 68.9516 52.5C68.6492 52.8024 68.4073 53.2258 68.2258 53.6492C68.0444 54.0725 67.9839 54.6169 67.9839 55.1613C67.9839 55.7056 68.1048 56.25 68.2258 56.6733C68.4073 57.1572 68.6492 57.5201 68.9516 57.8225C69.254 58.125 69.6169 58.3669 70.0403 58.4879C70.4637 58.6693 70.8871 58.7298 71.371 58.7298C71.8548 58.7298 72.3387 58.6693 72.7016 58.4879C73.125 58.3064 73.4879 58.125 73.7903 57.8225C74.0927 57.5201 74.3347 57.0967 74.5161 56.6733C74.6976 56.25 74.7581 55.7661 74.7581 55.1613C74.7581 54.6169 74.6371 54.0725 74.5161 53.6492C74.3347 53.1653 74.0927 52.8024 73.7903 52.5C73.4879 52.1975 73.125 51.9556 72.7016 51.8346C72.2782 51.7137 71.8548 51.5927 71.371 51.5927ZM65.0202 55.1008V59.879H63.871V55.1008C63.871 54.4959 63.871 53.9516 63.75 53.4677C63.6895 53.0443 63.5081 52.6814 63.2661 52.4395C63.0242 52.1371 62.7823 51.9556 62.4798 51.8346C62.1774 51.7137 61.8145 51.6532 61.3306 51.6532C60.7258 51.6532 60.2419 51.7742 59.8186 51.9556C59.3952 52.1371 59.0927 52.4395 58.7903 52.6814V59.879H57.5806V52.5604C57.5202 52.5 57.4597 52.5 57.4597 52.4395L57.3992 52.379C57.1573 52.0766 56.8548 51.8951 56.4919 51.7742C56.129 51.6532 55.7056 51.5927 55.2823 51.5927C54.5565 51.5927 54.0726 51.7742 53.6492 52.0766C53.2258 52.3185 52.9234 52.6814 52.6815 52.9838V59.879H51.4718V50.504H52.6815V51.2903C52.9234 51.0484 53.2863 50.8669 53.5887 50.7459C54.0726 50.504 54.6169 50.383 55.2823 50.383C55.8871 50.383 56.4314 50.504 56.9758 50.6854C57.4597 50.8669 57.8831 51.1693 58.1855 51.5322C58.5484 51.2298 58.9718 50.9274 59.4557 50.7459C60 50.504 60.6048 50.383 61.3306 50.383C61.9355 50.383 62.4798 50.504 62.9032 50.6854C63.3871 50.8669 63.75 51.2298 64.1129 51.5927C64.4758 52.0161 64.7177 52.5 64.8387 53.1048C64.9597 53.7096 65.0202 54.375 65.0202 55.1008ZM48.629 48.3266C48.871 48.3266 49.0524 48.3871 49.1734 48.5685C49.2944 48.6895 49.4153 48.9314 49.4153 49.1129C49.4153 49.2943 49.3548 49.5363 49.1734 49.6572C49.0524 49.7782 48.871 49.8992 48.629 49.8992C48.3871 49.8992 48.2056 49.8387 48.0847 49.6572C47.9637 49.5363 47.8427 49.2943 47.8427 49.1129C47.8427 48.8709 47.9032 48.6895 48.0847 48.5685C48.2661 48.4475 48.4476 48.3266 48.629 48.3266ZM49.2339 50.6854V59.879H48.0242V50.504H49.2339V50.6854ZM39.6169 50.625L42.3992 54.1935L45.1814 50.5645H46.6331L43.125 55.1613L46.8145 59.9395H45.3629L42.3992 56.0685L39.4355 59.879H37.9839L41.6734 55.1008L38.1048 50.504H39.5565L39.6169 50.625ZM30.5444 50.625L33.3266 54.1935L36.1089 50.5645H37.5605L34.0524 55.1613L37.7419 59.9395H36.2903L33.2661 56.0685L30.3024 59.879H28.8508L32.5403 55.1008L29.0323 50.504H30.4839L30.5444 50.625ZM23.4073 50.383C24.0726 50.383 24.6774 50.504 25.2218 50.6854C25.7661 50.9274 26.25 51.2298 26.6734 51.6532C27.0968 52.0766 27.4597 52.6209 27.7016 53.2258C27.9435 53.8306 28.0645 54.4959 28.0645 55.2217C28.0645 55.9475 27.9435 56.6129 27.7016 57.1572C27.4597 57.7621 27.0968 58.3064 26.6734 58.7298C26.25 59.1532 25.7661 59.4556 25.2218 59.6975C24.6774 59.9395 24.0726 60 23.4073 60C22.8024 60 22.1976 59.879 21.5927 59.6975C21.0484 59.4556 20.5645 59.1532 20.1411 58.7298C19.7177 58.3064 19.3548 57.7621 19.1129 57.1572C18.871 56.5524 18.75 55.8871 18.75 55.2217C18.75 54.4959 18.871 53.8306 19.1129 53.2258C19.3548 52.6209 19.7177 52.0766 20.1411 51.6532C20.5645 51.2298 21.0484 50.9274 21.5927 50.6854C22.1371 50.504 22.7419 50.383 23.4073 50.383ZM23.4073 51.5927C22.9234 51.5927 22.4395 51.6532 22.0766 51.8346C21.6532 52.0161 21.2903 52.1975 20.9879 52.5C20.6855 52.8024 20.4435 53.2258 20.2621 53.6492C20.0806 54.0725 20.0202 54.6169 20.0202 55.1613C20.0202 55.7056 20.1411 56.25 20.2621 56.6733C20.4435 57.1572 20.6855 57.5201 20.9879 57.8225C21.2903 58.125 21.6532 58.3669 22.0766 58.4879C22.5 58.6693 22.9234 58.7298 23.4073 58.7298C23.8911 58.7298 24.375 58.6693 24.7379 58.4879C25.1613 58.3064 25.5242 58.125 25.8266 57.8225C26.129 57.5201 26.371 57.0967 26.5524 56.6733C26.7339 56.25 26.7944 55.7661 26.7944 55.1613C26.7944 54.6169 26.6734 54.0725 26.5524 53.6492C26.371 53.1653 26.129 52.8024 25.8266 52.5C25.5242 52.1975 25.1613 51.9556 24.7379 51.8346C24.3145 51.7137 23.8911 51.5927 23.4073 51.5927ZM17.6613 51.7137C17.4798 51.6532 17.3589 51.6532 17.1774 51.5927C16.996 51.5927 16.8145 51.5322 16.6331 51.5322C16.1492 51.5322 15.7258 51.5927 15.3629 51.7137C15 51.8346 14.6976 52.0161 14.4556 52.258C14.2137 52.5 13.9718 52.8024 13.8508 53.2258C13.7298 53.6492 13.6089 54.133 13.6089 54.7379V59.879H12.4597V50.504H13.6089V51.4717C13.9718 51.1088 14.3952 50.8064 14.9395 50.625C15.4234 50.4435 15.9677 50.383 16.5121 50.3225H16.754C16.9355 50.3225 17.1169 50.3225 17.2984 50.383C17.4798 50.383 17.6613 50.4435 17.8427 50.4435H17.9637V51.6532L17.6613 51.7137ZM1.20968 53.0443H5.74597C6.83468 53.0443 7.80242 52.8024 8.40726 52.1975C9.0121 51.7137 9.31452 50.9274 9.31452 49.8992C9.31452 48.8709 8.95161 48.1451 8.40726 47.6008C7.74194 47.0564 6.83468 46.754 5.74597 46.754H1.20968V53.0443Z" fill="#293555"/>
<g filter="url(#filter0_d_439_5878)">
<path fill-rule="evenodd" clip-rule="evenodd" d="M53.4073 40.5847C53.1654 40.5847 52.3791 40.5847 51.6533 40.5242C50.6251 40.4637 48.2662 40.2823 46.3307 39.9194C38.5283 38.5887 32.2985 35.2621 27.8226 30.0605L27.3993 29.5161C27.2783 29.3952 27.0968 29.4557 27.0364 29.5766L26.7944 30.2419C26.613 30.6653 26.4315 31.0887 26.2501 31.4516C25.2823 33.629 24.3146 35.9274 22.3791 37.5C20.746 38.8306 18.6291 39.375 16.0283 39.7984C11.0081 40.5847 5.32265 40.5847 0.181519 40.5242V41.9153C1.20974 41.9153 2.90329 41.9153 3.93152 41.9153C8.04442 41.9153 12.1573 41.7944 16.2097 41.129C18.6291 40.7661 21.1694 40.1613 23.1654 38.5887C25.3428 36.8347 26.4315 34.4153 27.3993 32.0565C27.4597 31.9355 27.6412 31.875 27.7622 31.996C32.3589 36.8952 38.5283 39.9798 46.1493 41.3105C48.0847 41.6734 49.7783 41.7944 51.7743 41.9153C52.0767 41.9153 53.0444 41.9758 53.3468 41.9758H84.7985V40.5847H53.4073Z" fill="url(#paint0_linear_439_5878)"/>
</g>
<path fill-rule="evenodd" clip-rule="evenodd" d="M29.9614 0C31.905 0 33.4842 1.57922 33.4842 3.52287V13.97C33.4842 14.6989 32.9983 15.1848 32.2694 15.1848H28.7466V20.6513V22.8379V26.7252C28.7466 27.3326 28.2607 27.94 27.5318 27.94C26.9244 27.94 26.317 27.4541 26.317 26.7252V22.8379V21.2587V3.52287C26.317 1.57922 27.8962 0 29.9614 0ZM31.1761 3.52267C31.1761 2.91528 30.6902 2.30789 29.9614 2.30789C29.354 2.30789 28.7466 2.7938 28.7466 3.52267V12.755H31.1761V3.52267ZM53.4073 40.5846H53.4073C53.1653 40.5846 52.3791 40.5846 51.6533 40.5241C50.6251 40.4636 48.2662 40.2822 46.3307 39.9193C38.5283 38.5886 32.2985 35.262 27.8226 30.0604L27.3993 29.5161C27.2783 29.3951 27.0968 29.4556 27.0364 29.5766L26.7944 30.2419L26.7944 30.2419C26.613 30.6653 26.4315 31.0887 26.2501 31.4516L26.1341 31.7129C25.2035 33.8114 24.2373 35.9902 22.3791 37.4999C20.746 38.8306 18.6291 39.3749 16.0283 39.7983C11.0081 40.5846 5.32265 40.5846 0.181519 40.5241V41.9153H3.93152C8.04442 41.9153 12.1573 41.7943 16.2097 41.129C18.6291 40.7661 21.1694 40.1612 23.1654 38.5886C25.3428 36.8346 26.4315 34.4153 27.3993 32.0564C27.4597 31.9354 27.6412 31.8749 27.7622 31.9959C32.3589 36.8951 38.5283 39.9798 46.1493 41.3104C48.0847 41.6733 49.7783 41.7943 51.7743 41.9153C51.9255 41.9153 52.243 41.9304 52.5605 41.9455C52.8781 41.9606 53.1956 41.9757 53.3468 41.9757H84.7985V40.5846H53.4073ZM53.4677 38.8911C54.133 38.8911 54.6774 38.3467 54.6774 37.6814V35.6249C54.6774 34.9596 54.133 34.4153 53.4677 34.4153C52.8024 34.4153 52.258 34.9596 52.258 35.6249V37.6814C52.258 38.3467 52.8024 38.8911 53.4677 38.8911ZM11.1896 37.5001C11.1896 38.1654 10.6452 38.7098 9.9799 38.7098C9.31457 38.7098 8.77022 38.1654 8.77022 37.5001V35.4436C8.77022 34.7783 9.31457 34.234 9.9799 34.234C10.6452 34.234 11.1896 34.7783 11.1896 35.4436V37.5001ZM44.879 38.0444C44.2137 38.0444 43.6693 37.5 43.6693 36.8347V27.2177C43.6693 26.5524 44.2137 26.0081 44.879 26.0081C45.5443 26.0081 46.0887 26.5524 46.0887 27.2177V36.8347C46.0887 37.5 45.5443 38.0444 44.879 38.0444ZM19.8388 35.504V36.3508C19.8388 37.0161 19.2944 37.5605 18.6291 37.5605C17.9638 37.5605 17.4194 37.0161 17.4194 36.3508V27.8226C17.4194 27.1573 17.9638 26.6129 18.6291 26.6129C19.2944 26.6129 19.8388 27.1573 19.8388 27.8226V35.504ZM1.3912 38.8306C1.99603 38.8306 2.54039 38.3467 2.54039 37.6814C2.54039 37.0765 2.05652 36.5322 1.3912 36.5322H1.33071C0.725874 36.5322 0.181519 37.0161 0.181519 37.6814C0.181519 38.2862 0.66539 38.8306 1.33071 38.8306H1.3912ZM6.8347 37.6814C6.8347 38.3467 6.29035 38.8306 5.68551 38.8306C5.02019 38.8306 4.53632 38.2862 4.53632 37.6814C4.53632 37.0161 5.08067 36.5322 5.68551 36.5322H5.74599C6.35083 36.5322 6.8347 37.0765 6.8347 37.6814ZM24.133 31.2701V18.75C24.133 18.0847 23.5887 17.6008 22.9233 17.5403C22.258 17.5403 21.7137 18.0847 21.7137 18.75V31.2701C21.7137 31.9355 22.258 32.4798 22.9233 32.4798C23.5887 32.4798 24.133 31.9355 24.133 31.2701ZM15.484 37.1976C15.484 37.863 14.9396 38.4073 14.2743 38.4073C13.609 38.4073 13.0646 37.863 13.0646 37.1976V32.4194C13.0646 31.7541 13.609 31.2097 14.2743 31.2097C14.9396 31.2097 15.484 31.7541 15.484 32.4194V37.1976ZM37.4395 33.5686V15.9678C37.4395 15.363 36.8951 14.8791 36.2298 14.8791C35.5645 14.8791 35.0201 15.363 35.0201 15.9678V33.5686C35.0201 34.1735 35.5645 34.6573 36.2298 34.6573C36.8951 34.6573 37.4395 34.1735 37.4395 33.5686ZM58.9719 37.8025C58.9719 38.4678 58.4275 38.9517 57.8227 38.9517H57.7622C57.0969 38.9517 56.613 38.4073 56.613 37.8025C56.613 37.1371 57.1573 36.6533 57.7622 36.6533H57.8227C58.4275 36.6533 58.9719 37.1976 58.9719 37.8025ZM62.1169 38.9517C62.7218 38.9517 63.2661 38.4678 63.2661 37.8025C63.2661 37.1976 62.7218 36.6533 62.1169 36.6533H62.0565C61.4516 36.6533 60.9073 37.1371 60.9073 37.8025C60.9073 38.4073 61.3911 38.9517 62.0565 38.9517H62.1169ZM47.9638 37.5605C47.9638 38.2258 48.5081 38.7701 49.1734 38.7701C49.8388 38.7701 50.3831 38.2258 50.3831 37.5605V32.7822C50.3831 32.1169 49.8388 31.5726 49.1734 31.5726C48.5081 31.5726 47.9638 32.1169 47.9638 32.7822V37.5605ZM39.3751 35.504V22.9839C39.3751 22.3186 39.9195 21.7742 40.5243 21.7742C41.1896 21.7742 41.734 22.3186 41.734 22.9839C41.734 26.1752 41.734 27.6881 41.7414 29.2009C41.7482 30.5641 41.7609 31.9271 41.7852 34.518L41.7852 34.5197L41.7945 35.504C41.7945 36.1694 41.2501 36.7137 40.5848 36.7137C39.9195 36.7137 39.3751 36.1694 39.3751 35.504ZM67.5605 37.8025C67.5605 38.4678 67.0162 38.9517 66.4114 38.9517H66.3509C65.6855 38.9517 65.2017 38.4073 65.2017 37.8025C65.2017 37.1371 65.746 36.6533 66.3509 36.6533H66.4114C67.0767 36.6533 67.5605 37.1976 67.5605 37.8025ZM70.7056 38.9517C71.3105 38.9517 71.8548 38.4678 71.8548 37.8025C71.8548 37.1976 71.371 36.6533 70.7056 36.6533H70.6451C70.0403 36.6533 69.496 37.1371 69.496 37.8025C69.496 38.4073 69.9798 38.9517 70.6451 38.9517H70.7056ZM76.2098 37.8025C76.2098 38.4678 75.6654 38.9517 75.0606 38.9517H75.0001C74.3348 38.9517 73.8509 38.4073 73.8509 37.8025C73.8509 37.1371 74.3952 36.6533 75.0001 36.6533H75.0606C75.6654 36.6533 76.2098 37.1976 76.2098 37.8025ZM79.3549 38.9517C79.9597 38.9517 80.5041 38.4678 80.5041 37.8025C80.5041 37.1976 79.9597 36.6533 79.3549 36.6533H79.2944C78.6895 36.6533 78.1452 37.1371 78.1452 37.8025C78.1452 38.4073 78.6291 38.9517 79.2944 38.9517H79.3549ZM84.7985 37.8025C84.7985 38.4678 84.2541 38.9517 83.6493 38.9517H83.5888C82.9235 38.9517 82.4396 38.4073 82.4396 37.8025C82.4396 37.1371 82.9839 36.6533 83.5888 36.6533H83.6493C84.2541 36.6533 84.7985 37.1976 84.7985 37.8025ZM32.0565 31.5726C31.3912 31.5726 30.8468 31.0283 30.8468 30.3629V25.5847C30.8468 24.9194 31.3912 24.375 32.0565 24.375C32.7218 24.375 33.2662 24.9194 33.2662 25.5847V30.3629C33.2662 31.0283 32.7218 31.5726 32.0565 31.5726Z" fill="url(#paint1_linear_439_5878)"/>
<defs>
<filter id="filter0_d_439_5878" x="-5.81848" y="26.4502" width="96.6169" height="24.5256" filterUnits="userSpaceOnUse" color-interpolation-filters="sRGB">
<feFlood flood-opacity="0" result="BackgroundImageFix"/>
<feColorMatrix in="SourceAlpha" type="matrix" values="0 0 0 0 0 0 0 0 0 0 0 0 0 0 0 0 0 0 127 0" result="hardAlpha"/>
<feOffset dy="3"/>
<feGaussianBlur stdDeviation="3"/>
<feComposite in2="hardAlpha" operator="out"/>
<feColorMatrix type="matrix" values="0 0 0 0 0 0 0 0 0 0 0 0 0 0 0 0 0 0 0.6 0"/>
<feBlend mode="normal" in2="BackgroundImageFix" result="effect1_dropShadow_439_5878"/>
<feBlend mode="normal" in="SourceGraphic" in2="effect1_dropShadow_439_5878" result="shape"/>
</filter>
<linearGradient id="paint0_linear_439_5878" x1="-9.57377" y1="37.8665" x2="88.488" y2="36.09" gradientUnits="userSpaceOnUse">
<stop stop-color="#5FEEFF"/>
<stop offset="1" stop-color="#0060FF"/>
</linearGradient>
<linearGradient id="paint1_linear_439_5878" x1="-9.57377" y1="28.2047" x2="88.5173" y2="27.6744" gradientUnits="userSpaceOnUse">
<stop stop-color="#5FEEFF"/>
<stop offset="1" stop-color="#0060FF"/>
</linearGradient>
</defs>
</svg>
