<svg width="125" height="88" viewBox="0 0 125 88" fill="none" xmlns="http://www.w3.org/2000/svg">
<g clip-path="url(#clip0_90_340)">
<path fill-rule="evenodd" clip-rule="evenodd" d="M8.33871 66.9758C10.379 66.9758 12.2419 67.5081 13.5726 68.6613C14.7258 69.7258 15.4355 71.2339 15.4355 73.2742C15.4355 75.2258 14.6371 76.7339 13.4839 77.7984C12.1532 79.0403 10.2016 79.5726 8.33871 79.5726H1.77419V87.9113H0V66.9758H8.33871ZM119.048 73.8952C120.113 73.8952 121.089 74.0726 121.976 74.4274C122.863 74.7823 123.573 75.2258 124.194 75.8468L124.371 76.0242L123.04 77.1774L122.863 77C122.508 76.6452 121.976 76.2903 121.266 76.0242C120.556 75.7581 119.847 75.6694 119.048 75.6694C118.516 75.6694 117.984 75.7581 117.54 75.8468C117.097 75.9355 116.653 76.1129 116.387 76.2903C116.121 76.4678 115.855 76.6452 115.766 76.8226C115.677 77 115.589 77.1774 115.589 77.4436C115.589 77.7097 115.589 77.8871 115.677 77.9758C115.766 78.1533 115.944 78.3307 116.21 78.5081C116.476 78.6855 116.831 78.8629 117.185 79.1291C117.629 79.3065 118.073 79.5726 118.605 79.75L120.645 80.4597C121.177 80.6371 121.71 80.9033 122.153 81.0807C122.597 81.3468 123.04 81.6129 123.395 81.8791C123.75 82.2339 124.105 82.5887 124.282 83.0323C124.46 83.4758 124.637 83.9194 124.637 84.4516C124.637 84.9839 124.46 85.5162 124.194 85.9597C123.927 86.4033 123.484 86.8468 122.952 87.1129C122.419 87.3791 121.887 87.6452 121.266 87.8226C120.645 88 119.935 88.0887 119.226 88.0887C117.984 88.0887 116.919 87.9113 116.032 87.5565C114.702 87.1129 113.815 86.492 113.46 86.1371L113.282 85.9597L114.524 84.7178L114.702 84.8952C114.879 85.0726 115.589 85.6049 116.653 85.9597C117.363 86.2258 118.161 86.3145 119.226 86.3145C119.847 86.3145 120.29 86.2258 120.823 86.1371C121.355 86.0484 121.798 85.871 122.065 85.6049C122.331 85.4274 122.597 85.25 122.685 84.9839C122.863 84.8065 122.863 84.6291 122.863 84.3629C122.863 84.0968 122.863 83.9194 122.685 83.742C122.597 83.5645 122.419 83.3871 122.242 83.2097C121.976 83.0323 121.71 82.8549 121.355 82.6774C121 82.5 120.556 82.3226 120.024 82.1452L117.984 81.4355C117.363 81.2581 116.831 80.992 116.387 80.8145C115.855 80.5484 115.5 80.2823 115.056 80.0162C114.613 79.6613 114.347 79.3065 114.081 78.8629C113.903 78.4194 113.726 77.9758 113.726 77.5323C113.726 77 113.903 76.4678 114.169 76.0242C114.435 75.5807 114.879 75.1371 115.411 74.871C115.855 74.6049 116.476 74.3387 117.008 74.25C117.718 73.9839 118.339 73.8952 119.048 73.8952ZM104.677 73.8952C105.653 73.8952 106.54 74.0726 107.339 74.3387C108.137 74.6936 108.847 75.1371 109.468 75.7581C110.089 76.3791 110.621 77.1774 110.976 78.0645C111.331 78.9516 111.508 79.9274 111.508 80.992C111.508 82.0565 111.331 83.0323 110.976 83.8307C110.621 84.7178 110.089 85.5162 109.468 86.1371C108.847 86.7581 108.137 87.2016 107.339 87.5565C106.54 87.9113 105.653 88 104.677 88C103.79 88 102.903 87.8226 102.016 87.5565C101.218 87.2016 100.508 86.7581 99.8871 86.1371C99.2661 85.5162 98.7339 84.7178 98.379 83.8307C98.0242 82.9436 97.8468 81.9678 97.8468 80.992C97.8468 79.9274 98.0242 78.9516 98.379 78.0645C98.7339 77.1774 99.2661 76.3791 99.8871 75.7581C100.508 75.1371 101.218 74.6936 102.016 74.3387C102.815 74.0726 103.702 73.8952 104.677 73.8952ZM104.677 75.6694C103.968 75.6694 103.258 75.7581 102.726 76.0242C102.105 76.2903 101.573 76.5565 101.129 77C100.685 77.4436 100.331 78.0645 100.065 78.6855C99.7984 79.3065 99.7097 80.1049 99.7097 80.9032C99.7097 81.7016 99.8871 82.5 100.065 83.121C100.331 83.8307 100.685 84.3629 101.129 84.8065C101.573 85.25 102.105 85.6049 102.726 85.7823C103.347 86.0484 103.968 86.1371 104.677 86.1371C105.387 86.1371 106.097 86.0484 106.629 85.7823C107.25 85.5162 107.782 85.25 108.226 84.8065C108.669 84.3629 109.024 83.742 109.29 83.121C109.556 82.5 109.645 81.7903 109.645 80.9032C109.645 80.1049 109.468 79.3065 109.29 78.6855C109.024 77.9758 108.669 77.4436 108.226 77C107.782 76.5565 107.25 76.2016 106.629 76.0242C106.008 75.8468 105.387 75.6694 104.677 75.6694ZM95.3629 80.8145V87.8226H93.6774V80.8145C93.6774 79.9274 93.6774 79.1291 93.5 78.4194C93.4113 77.7984 93.1452 77.2662 92.7903 76.9113C92.4355 76.4678 92.0807 76.2016 91.6371 76.0242C91.1936 75.8468 90.6613 75.7581 89.9516 75.7581C89.0645 75.7581 88.3548 75.9355 87.7339 76.2016C87.1129 76.4678 86.6694 76.9113 86.2258 77.2662V87.8226H84.4516V77.0887C84.3629 77 84.2742 77 84.2742 76.9113L84.1855 76.8226C83.8307 76.3791 83.3871 76.1129 82.8548 75.9355C82.3226 75.7581 81.7016 75.6694 81.0807 75.6694C80.0161 75.6694 79.3064 75.9355 78.6855 76.3791C78.0645 76.7339 77.621 77.2662 77.2661 77.7097V87.8226H75.4919V74.0726H77.2661V75.2258C77.621 74.871 78.1532 74.6049 78.5968 74.4274C79.3065 74.0726 80.1048 73.8952 81.0807 73.8952C81.9678 73.8952 82.7661 74.0726 83.5645 74.3387C84.2742 74.6049 84.8952 75.0484 85.3387 75.5807C85.871 75.1371 86.4919 74.6936 87.2016 74.4274C88 74.0726 88.8871 73.8952 89.9516 73.8952C90.8387 73.8952 91.6371 74.0726 92.2581 74.3387C92.9678 74.6049 93.5 75.1371 94.0323 75.6694C94.5645 76.2903 94.9194 77 95.0968 77.8871C95.2742 78.7742 95.3629 79.75 95.3629 80.8145ZM71.3226 70.8791C71.6774 70.8791 71.9436 70.9678 72.121 71.2339C72.2984 71.4113 72.4758 71.7661 72.4758 72.0323C72.4758 72.2984 72.3871 72.6532 72.121 72.8307C71.9436 73.0081 71.6774 73.1855 71.3226 73.1855C70.9678 73.1855 70.7016 73.0968 70.5242 72.8307C70.3468 72.6532 70.1694 72.2984 70.1694 72.0323C70.1694 71.6774 70.2581 71.4113 70.5242 71.2339C70.7903 71.0565 71.0565 70.8791 71.3226 70.8791ZM72.2097 74.3387V87.8226H70.4355V74.0726H72.2097V74.3387ZM58.1048 74.25L62.1855 79.4839L66.2661 74.1613H68.3952L63.25 80.9032L68.6613 87.9113H66.5323L62.1855 82.2339L57.8387 87.8226H55.7097L61.121 80.8145L55.8871 74.0726H58.0161L58.1048 74.25ZM44.7984 74.25L48.879 79.4839L52.9597 74.1613H55.0887L49.9436 80.9032L55.3548 87.9113H53.2258L48.7903 82.2339L44.4436 87.8226H42.3145L47.7258 80.8145L42.5806 74.0726H44.7097L44.7984 74.25ZM34.3306 73.8952C35.3065 73.8952 36.1936 74.0726 36.9919 74.3387C37.7903 74.6936 38.5 75.1371 39.121 75.7581C39.7419 76.3791 40.2742 77.1774 40.629 78.0645C40.9839 78.9516 41.1613 79.9274 41.1613 80.992C41.1613 82.0565 40.9839 83.0323 40.629 83.8307C40.2742 84.7178 39.7419 85.5162 39.121 86.1371C38.5 86.7581 37.7903 87.2016 36.9919 87.5565C36.1936 87.9113 35.3065 88 34.3306 88C33.4436 88 32.5565 87.8226 31.6694 87.5565C30.871 87.2016 30.1613 86.7581 29.5403 86.1371C28.9194 85.5162 28.3871 84.7178 28.0323 83.8307C27.6774 82.9436 27.5 81.9678 27.5 80.992C27.5 79.9274 27.6774 78.9516 28.0323 78.0645C28.3871 77.1774 28.9194 76.3791 29.5403 75.7581C30.1613 75.1371 30.871 74.6936 31.6694 74.3387C32.4677 74.0726 33.3548 73.8952 34.3306 73.8952ZM34.3306 75.6694C33.621 75.6694 32.9113 75.7581 32.379 76.0242C31.7581 76.2903 31.2258 76.5565 30.7823 77C30.3387 77.4436 29.9839 78.0645 29.7177 78.6855C29.4516 79.3065 29.3629 80.1049 29.3629 80.9032C29.3629 81.7016 29.5403 82.5 29.7177 83.121C29.9839 83.8307 30.3387 84.3629 30.7823 84.8065C31.2258 85.25 31.7581 85.6049 32.379 85.7823C33 86.0484 33.621 86.1371 34.3306 86.1371C35.0403 86.1371 35.75 86.0484 36.2823 85.7823C36.9032 85.5162 37.4355 85.25 37.879 84.8065C38.3226 84.3629 38.6774 83.742 38.9436 83.121C39.2097 82.5 39.2984 81.7903 39.2984 80.9032C39.2984 80.1049 39.121 79.3065 38.9436 78.6855C38.6774 77.9758 38.3226 77.4436 37.879 77C37.4355 76.5565 36.9032 76.2016 36.2823 76.0242C35.6613 75.8468 35.0403 75.6694 34.3306 75.6694ZM25.9032 75.8468C25.6371 75.7581 25.4597 75.7581 25.1936 75.6694C24.9274 75.6694 24.6613 75.5807 24.3952 75.5807C23.6855 75.5807 23.0645 75.6694 22.5323 75.8468C22 76.0242 21.5565 76.2903 21.2016 76.6452C20.8468 77 20.4919 77.4436 20.3145 78.0645C20.1371 78.6855 19.9597 79.3952 19.9597 80.2823V87.8226H18.2742V74.0726H19.9597V75.492C20.4919 74.9597 21.1129 74.5162 21.9113 74.25C22.621 73.9839 23.4194 73.8952 24.2177 73.8065H24.5726C24.8387 73.8065 25.1048 73.8065 25.371 73.8952C25.6371 73.8952 25.9032 73.9839 26.1694 73.9839H26.3468V75.7581L25.9032 75.8468ZM1.77419 77.7984H8.42742C10.0242 77.7984 11.4435 77.4436 12.3306 76.5565C13.2177 75.8468 13.6613 74.6936 13.6613 73.1855C13.6613 71.6774 13.129 70.6129 12.3306 69.8145C11.3548 69.0161 10.0242 68.5726 8.42742 68.5726H1.77419V77.7984Z" fill="white"/>
<g filter="url(#filter0_d_90_340)">
<path fill-rule="evenodd" clip-rule="evenodd" d="M78.3307 59.5242C77.9759 59.5242 76.8226 59.5242 75.7581 59.4355C74.25 59.3468 70.7904 59.0806 67.9517 58.5484C56.5081 56.5968 47.371 51.7177 40.8065 44.0887L40.1855 43.2903C40.0081 43.1129 39.742 43.2016 39.6533 43.379L39.2984 44.3548C39.0323 44.9758 38.7662 45.5968 38.5 46.129C37.0807 49.3226 35.6613 52.6935 32.8226 55C30.4275 56.9516 27.3226 57.75 23.5081 58.371C16.1452 59.5242 7.8065 59.5242 0.266174 59.4355V61.4758C1.77424 61.4758 4.25811 61.4758 5.76617 61.4758C11.7984 61.4758 17.8307 61.2984 23.7742 60.3226C27.3226 59.7903 31.0484 58.9032 33.9759 56.5968C37.1694 54.0242 38.7662 50.4758 40.1855 47.0161C40.2742 46.8387 40.5404 46.75 40.7178 46.9274C47.4597 54.1129 56.5081 58.6371 67.6855 60.5887C70.5242 61.121 73.0081 61.2984 75.9355 61.4758C76.3791 61.4758 77.7984 61.5645 78.242 61.5645H124.371V59.5242H78.3307Z" fill="url(#paint0_linear_90_340)"/>
</g>
<path fill-rule="evenodd" clip-rule="evenodd" d="M43.9453 0C46.7961 0 49.1124 2.31626 49.1124 5.16704V20.49C49.1124 21.559 48.3997 22.2717 47.3306 22.2717H42.1636V30.2896V33.4967V39.1983C42.1636 40.0891 41.4509 40.98 40.3818 40.98C39.491 40.98 38.6001 40.2673 38.6001 39.1983V33.4967V31.1804V5.16704C38.6001 2.31626 40.9164 0 43.9453 0ZM45.7271 5.16687C45.7271 4.276 45.0144 3.38513 43.9453 3.38513C43.0544 3.38513 42.1636 4.09783 42.1636 5.16687V18.7081H45.7271V5.16687ZM78.3307 59.5241C77.9759 59.5241 76.8226 59.5241 75.7581 59.4354C74.25 59.3467 70.7904 59.0806 67.9517 58.5483C56.5081 56.5967 47.371 51.7177 40.8065 44.0886L40.1855 43.2903C40.0081 43.1128 39.742 43.2016 39.6533 43.379L39.2984 44.3548C39.0323 44.9757 38.7662 45.5967 38.5 46.129L38.3299 46.5123C36.9651 49.5901 35.548 52.7856 32.8226 54.9999C30.4275 56.9515 27.3226 57.7499 23.5081 58.3709C16.1452 59.5241 7.8065 59.5241 0.266174 59.4354V61.4757H5.76617C11.7984 61.4757 17.8307 61.2983 23.7742 60.3225C27.3226 59.7903 31.0484 58.9032 33.9759 56.5967C37.1694 54.0241 38.7662 50.4757 40.1855 47.0161C40.2742 46.8386 40.5404 46.7499 40.7178 46.9274C47.4597 54.1128 56.5081 58.637 67.6855 60.5886C70.5242 61.1209 73.0081 61.2983 75.9355 61.4757C76.1573 61.4757 76.623 61.4979 77.0887 61.5201C77.5545 61.5423 78.0202 61.5645 78.242 61.5645H124.371V59.5241H78.3307ZM78.4193 57.0402C79.3951 57.0402 80.1935 56.2418 80.1935 55.266V52.2499C80.1935 51.2741 79.3951 50.4757 78.4193 50.4757C77.4435 50.4757 76.6451 51.2741 76.6451 52.2499V55.266C76.6451 56.2418 77.4435 57.0402 78.4193 57.0402ZM16.4113 55.0001C16.4113 55.9759 15.6129 56.7743 14.6371 56.7743C13.6613 56.7743 12.8629 55.9759 12.8629 55.0001V51.984C12.8629 51.0082 13.6613 50.2098 14.6371 50.2098C15.6129 50.2098 16.4113 51.0082 16.4113 51.984V55.0001ZM65.8225 55.7984C64.8467 55.7984 64.0483 55 64.0483 54.0242V39.9193C64.0483 38.9435 64.8467 38.1452 65.8225 38.1452C66.7983 38.1452 67.5967 38.9435 67.5967 39.9193V54.0242C67.5967 55 66.7983 55.7984 65.8225 55.7984ZM29.0968 52.0726V53.3145C29.0968 54.2903 28.2984 55.0887 27.3226 55.0887C26.3468 55.0887 25.5484 54.2903 25.5484 53.3145V40.8065C25.5484 39.8306 26.3468 39.0323 27.3226 39.0323C28.2984 39.0323 29.0968 39.8306 29.0968 40.8065V52.0726ZM2.04037 56.9515C2.92746 56.9515 3.72585 56.2418 3.72585 55.266C3.72585 54.3789 3.01617 53.5806 2.04037 53.5806H1.95166C1.06456 53.5806 0.266174 54.2902 0.266174 55.266C0.266174 56.1531 0.975852 56.9515 1.95166 56.9515H2.04037ZM10.0242 55.266C10.0242 56.2418 9.22581 56.9515 8.33871 56.9515C7.3629 56.9515 6.65323 56.1531 6.65323 55.266C6.65323 54.2902 7.45161 53.5806 8.33871 53.5806H8.42742C9.31452 53.5806 10.0242 54.3789 10.0242 55.266ZM35.3951 45.8629V27.5C35.3951 26.5242 34.5967 25.8145 33.6209 25.7258C32.6451 25.7258 31.8467 26.5242 31.8467 27.5V45.8629C31.8467 46.8387 32.6451 47.6371 33.6209 47.6371C34.5967 47.6371 35.3951 46.8387 35.3951 45.8629ZM22.7098 54.5565C22.7098 55.5324 21.9114 56.3307 20.9356 56.3307C19.9598 56.3307 19.1614 55.5324 19.1614 54.5565V47.5485C19.1614 46.5727 19.9598 45.7743 20.9356 45.7743C21.9114 45.7743 22.7098 46.5727 22.7098 47.5485V54.5565ZM54.9112 49.234V23.4194C54.9112 22.5323 54.1128 21.8227 53.137 21.8227C52.1612 21.8227 51.3628 22.5323 51.3628 23.4194V49.234C51.3628 50.121 52.1612 50.8307 53.137 50.8307C54.1128 50.8307 54.9112 50.121 54.9112 49.234ZM86.492 55.4436C86.492 56.4194 85.6936 57.1291 84.8065 57.1291H84.7178C83.742 57.1291 83.0324 56.3307 83.0324 55.4436C83.0324 54.4678 83.8307 53.7582 84.7178 53.7582H84.8065C85.6936 53.7582 86.492 54.5565 86.492 55.4436ZM91.1048 57.1291C91.9919 57.1291 92.7903 56.4194 92.7903 55.4436C92.7903 54.5565 91.9919 53.7582 91.1048 53.7582H91.0161C90.129 53.7582 89.3306 54.4678 89.3306 55.4436C89.3306 56.3307 90.0403 57.1291 91.0161 57.1291H91.1048ZM70.3468 55.0887C70.3468 56.0645 71.1452 56.8629 72.121 56.8629C73.0968 56.8629 73.8952 56.0645 73.8952 55.0887V48.0806C73.8952 47.1048 73.0968 46.3064 72.121 46.3064C71.1452 46.3064 70.3468 47.1048 70.3468 48.0806V55.0887ZM57.7501 52.0726V33.7097C57.7501 32.7339 58.5485 31.9355 59.4356 31.9355C60.4114 31.9355 61.2098 32.7339 61.2098 33.7097C61.2098 38.3903 61.2098 40.6092 61.2207 42.828C61.2306 44.8248 61.2493 46.8216 61.2848 50.6127L61.2848 50.6143L61.2849 50.6186L61.2849 50.6257L61.2849 50.6264L61.285 50.6316L61.2985 52.0726C61.2985 53.0484 60.5001 53.8468 59.5243 53.8468C58.5485 53.8468 57.7501 53.0484 57.7501 52.0726ZM99.0887 55.4436C99.0887 56.4194 98.2904 57.1291 97.4033 57.1291H97.3146C96.3388 57.1291 95.6291 56.3307 95.6291 55.4436C95.6291 54.4678 96.4275 53.7582 97.3146 53.7582H97.4033C98.3791 53.7582 99.0887 54.5565 99.0887 55.4436ZM103.702 57.1291C104.589 57.1291 105.387 56.4194 105.387 55.4436C105.387 54.5565 104.677 53.7582 103.702 53.7582H103.613C102.726 53.7582 101.927 54.4678 101.927 55.4436C101.927 56.3307 102.637 57.1291 103.613 57.1291H103.702ZM111.774 55.4436C111.774 56.4194 110.976 57.1291 110.089 57.1291H110C109.024 57.1291 108.315 56.3307 108.315 55.4436C108.315 54.4678 109.113 53.7582 110 53.7582H110.089C110.976 53.7582 111.774 54.5565 111.774 55.4436ZM116.387 57.1291C117.274 57.1291 118.073 56.4194 118.073 55.4436C118.073 54.5565 117.274 53.7582 116.387 53.7582H116.298C115.411 53.7582 114.613 54.4678 114.613 55.4436C114.613 56.3307 115.323 57.1291 116.298 57.1291H116.387ZM124.371 55.4436C124.371 56.4194 123.573 57.1291 122.686 57.1291H122.597C121.621 57.1291 120.911 56.3307 120.911 55.4436C120.911 54.4678 121.71 53.7582 122.597 53.7582H122.686C123.573 53.7582 124.371 54.5565 124.371 55.4436ZM47.0161 46.3065C46.0403 46.3065 45.2419 45.5081 45.2419 44.5323V37.5242C45.2419 36.5484 46.0403 35.75 47.0161 35.75C47.9919 35.75 48.7903 36.5484 48.7903 37.5242V44.5323C48.7903 45.5081 47.9919 46.3065 47.0161 46.3065Z" fill="url(#paint1_linear_90_340)"/>
</g>
<defs>
<filter id="filter0_d_90_340" x="-5.73383" y="40.1936" width="136.105" height="30.3708" filterUnits="userSpaceOnUse" color-interpolation-filters="sRGB">
<feFlood flood-opacity="0" result="BackgroundImageFix"/>
<feColorMatrix in="SourceAlpha" type="matrix" values="0 0 0 0 0 0 0 0 0 0 0 0 0 0 0 0 0 0 127 0" result="hardAlpha"/>
<feOffset dy="3"/>
<feGaussianBlur stdDeviation="3"/>
<feComposite in2="hardAlpha" operator="out"/>
<feColorMatrix type="matrix" values="0 0 0 0 0 0 0 0 0 0 0 0 0 0 0 0 0 0 0.6 0"/>
<feBlend mode="normal" in2="BackgroundImageFix" result="effect1_dropShadow_90_340"/>
<feBlend mode="normal" in="SourceGraphic" in2="effect1_dropShadow_90_340" result="shape"/>
</filter>
<linearGradient id="paint0_linear_90_340" x1="-14.0416" y1="55.5375" x2="129.782" y2="52.932" gradientUnits="userSpaceOnUse">
<stop stop-color="#5FEEFF"/>
<stop offset="1" stop-color="#0060FF"/>
</linearGradient>
<linearGradient id="paint1_linear_90_340" x1="-14.0416" y1="41.3669" x2="129.825" y2="40.5892" gradientUnits="userSpaceOnUse">
<stop stop-color="#5FEEFF"/>
<stop offset="1" stop-color="#0060FF"/>
</linearGradient>
<clipPath id="clip0_90_340">
<rect width="124.637" height="88" fill="white"/>
</clipPath>
</defs>
</svg>
